<?xml version="1.0" encoding="utf-8"?>
<svg xmlns="http://www.w3.org/2000/svg" style="margin: auto; background: none; display: block; shape-rendering: auto;" width="280" height="250" preserveAspectRatio="xMidYMid">
<style type="text/css">
  text {
    text-anchor: middle; font-size: 48px; opacity: 0;
  }
</style>
<g style="transform-origin: 140px 125px; transform: scale(0.6);">
<g transform="translate(140,125)">
  <g transform="translate(0,0)"><g class="path" style="transform: matrix(1, 0, 0, 1, 0, 0); transform-origin: -75.28px -7.3984px; animation: 1s linear -0.565714s infinite normal forwards running bounce-0ec7cb90-a416-4fc1-9824-fe34a3b077d8;"><path d="M7.04 0L7.04-54.56L13.76-54.56L13.76 0L7.04 0" fill="#edd041" stroke="none" stroke-width="none" transform="translate(-85.68002319335938,19.881601954868866)" style="fill: rgb(237, 208, 65);"></path></g><g class="path" style="transform: matrix(1, 0, 0, 1, 0, 0); transform-origin: -41.12px -7.3984px; animation: 1s linear -0.471429s infinite normal forwards running bounce-0ec7cb90-a416-4fc1-9824-fe34a3b077d8;"><path d="M27.84 0L27.84-54.56L61.28-54.56L61.28-48.40L34.56-48.40L34.56-30.96L59.36-30.96L59.36-24.96L34.56-24.96L34.56 0L27.84 0" fill="#edd041" stroke="none" stroke-width="none" transform="translate(-85.68002319335938,19.881601954868866)" style="fill: rgb(226, 122, 59);"></path></g><g class="path" style="transform: matrix(1, 0, 0, 1, 0, 0); transform-origin: 2.99998px -7.2384px; animation: 1s linear -0.377143s infinite normal forwards running bounce-0ec7cb90-a416-4fc1-9824-fe34a3b077d8;"><path d="M109.28-52.80L107.84-46.88L107.84-46.88Q105.84-47.52 103.60-48.04L103.60-48.04L103.60-48.04Q101.36-48.56 98.68-48.92L98.68-48.92L98.68-48.92Q96-49.28 93.04-49.28L93.04-49.28L93.04-49.28Q88.24-49.28 84.88-47.20L84.88-47.20L84.88-47.20Q81.52-45.12 79.40-41.88L79.40-41.88L79.40-41.88Q77.28-38.64 76.32-34.64L76.32-34.64L76.32-34.64Q75.36-30.64 75.36-26.72L75.36-26.72L75.36-26.72Q75.36-21.76 76.76-17.72L76.76-17.72L76.76-17.72Q78.16-13.68 80.60-10.84L80.60-10.84L80.60-10.84Q83.04-8 86.28-6.48L86.28-6.48L86.28-6.48Q89.52-4.96 93.12-4.96L93.12-4.96L93.12-4.96Q96.48-4.96 99.28-5.32L99.28-5.32L99.28-5.32Q102.08-5.68 104.08-6.08L104.08-6.08L104.08-6.08Q106.40-6.56 108.24-7.20L108.24-7.20L109.60-1.52L109.60-1.52Q107.44-0.80 104.80-0.24L104.80-0.24L104.80-0.24Q102.56 0.24 99.60 0.64L99.60 0.64L99.60 0.64Q96.64 1.04 93.12 1.04L93.12 1.04L93.12 1.04Q86.80 1.04 82.04-1.04L82.04-1.04L82.04-1.04Q77.28-3.12 74.12-6.84L74.12-6.84L74.12-6.84Q70.96-10.56 69.36-15.64L69.36-15.64L69.36-15.64Q67.76-20.72 67.76-26.80L67.76-26.80L67.76-26.80Q67.76-33.76 69.68-39.08L69.68-39.08L69.68-39.08Q71.60-44.40 74.96-48L74.96-48L74.96-48Q78.32-51.60 82.96-53.44L82.96-53.44L82.96-53.44Q87.60-55.28 93.12-55.28L93.12-55.28L93.12-55.28Q96.48-55.28 99.40-54.92L99.40-54.92L99.40-54.92Q102.32-54.56 104.76-54L104.76-54L104.76-54Q107.20-53.44 109.28-52.80L109.28-52.80" fill="#edd041" stroke="none" stroke-width="none" transform="translate(-85.68002319335938,19.881601954868866)" style="fill: rgb(0, 0, 0);"></path></g><g class="path" style="transform: matrix(1, 0, 0, 1, 0, 0); transform-origin: 35.48px 15.1616px; animation: 1s linear -0.282857s infinite normal forwards running bounce-0ec7cb90-a416-4fc1-9824-fe34a3b077d8;"><path d="M116.32-4.72L116.32-4.72L116.32-4.72Q116.32-6.64 117.68-8.04L117.68-8.04L117.68-8.04Q119.04-9.44 121.04-9.44L121.04-9.44L121.04-9.44Q123.12-9.44 124.56-8.04L124.56-8.04L124.56-8.04Q126.00-6.64 126.00-4.72L126.00-4.72L126.00-4.72Q126.00-2.72 124.56-1.36L124.56-1.36L124.56-1.36Q123.12 0 121.04 0L121.04 0L121.04 0Q119.04 0 117.68-1.36L117.68-1.36L117.68-1.36Q116.32-2.72 116.32-4.72" fill="#edd041" stroke="none" stroke-width="none" transform="translate(-85.68002319335938,19.881601954868866)" style="fill: rgb(237, 208, 65);"></path></g><g class="path" style="transform: matrix(1, 0, 0, 1, 0, 0); transform-origin: 49.4px 8.8416px; animation: 1s linear -0.188571s infinite normal forwards running bounce-0ec7cb90-a416-4fc1-9824-fe34a3b077d8;"><path d="M135.76-40.16L142.16-41.12L142.16-0.72L142.16-0.72Q142.16 6.48 139.52 11.16L139.52 11.16L139.52 11.16Q136.88 15.84 131.28 19.04L131.28 19.04L128 13.36L128 13.36Q130.40 11.92 131.92 10.20L131.92 10.20L131.92 10.20Q133.44 8.48 134.28 6.52L134.28 6.52L134.28 6.52Q135.12 4.56 135.44 2.52L135.44 2.52L135.44 2.52Q135.76 0.48 135.76-1.60L135.76-1.60L135.76-40.16" fill="#edd041" stroke="none" stroke-width="none" transform="translate(-85.68002319335938,19.881601954868866)" style="fill: rgb(226, 122, 59);"></path></g><g class="path" style="transform: matrix(1, 0, 0, 1, 0, 0); transform-origin: 53.24px -31.8784px; animation: 1s linear -0.0942857s infinite normal forwards running bounce-0ec7cb90-a416-4fc1-9824-fe34a3b077d8;"><path d="M134.48-51.76L134.48-51.76L134.48-51.76Q134.48-53.60 135.72-54.84L135.72-54.84L135.72-54.84Q136.96-56.08 138.80-56.08L138.80-56.08L138.80-56.08Q140.72-56.08 142.04-54.84L142.04-54.84L142.04-54.84Q143.36-53.60 143.36-51.76L143.36-51.76L143.36-51.76Q143.36-49.92 142.04-48.68L142.04-48.68L142.04-48.68Q140.72-47.44 138.80-47.44L138.80-47.44L138.80-47.44Q136.96-47.44 135.72-48.68L135.72-48.68L135.72-48.68Q134.48-49.92 134.48-51.76" fill="#edd041" stroke="none" stroke-width="none" transform="translate(-85.68002319335938,19.881601954868866)" style="fill: rgb(0, 0, 0);"></path></g><g class="path" style="transform: matrix(1, 0, 0, 1, 0, 0); transform-origin: 79.12px -0.118399px; animation: 1s linear 0s infinite normal forwards running bounce-0ec7cb90-a416-4fc1-9824-fe34a3b077d8;"><path d="M176.56-39.36L175.44-33.68L175.44-33.68Q172.08-34.72 169.48-35.08L169.48-35.08L169.48-35.08Q166.88-35.44 164.72-35.44L164.72-35.44L164.72-35.44Q161.92-35.44 160.04-34.08L160.04-34.08L160.04-34.08Q158.16-32.72 158.16-30.56L158.16-30.56L158.16-30.56Q158.24-28.64 159.84-27.28L159.84-27.28L159.84-27.28Q161.44-25.92 163.56-24.84L163.56-24.84L163.56-24.84Q165.68-23.76 168.28-22.48L168.28-22.48L168.28-22.48Q170.88-21.20 173.16-19.60L173.16-19.60L173.16-19.60Q175.44-18 176.88-15.76L176.88-15.76L176.88-15.76Q178.32-13.52 178.40-10.40L178.40-10.40L178.40-10.40Q178.32-7.04 176.92-4.84L176.92-4.84L176.92-4.84Q175.52-2.64 173.32-1.32L173.32-1.32L173.32-1.32Q171.12 0 168.56 0.52L168.56 0.52L168.56 0.52Q166.00 1.04 163.76 1.04L163.76 1.04L163.76 1.04Q160.88 1.04 157.80 0.72L157.80 0.72L157.80 0.72Q154.72 0.40 151.20-0.64L151.20-0.64L152.40-6.40L152.40-6.40Q156.00-5.44 158.96-5L158.96-5L158.96-5Q161.92-4.56 163.84-4.56L163.84-4.56L163.84-4.56Q165.28-4.56 166.68-4.88L166.68-4.88L166.68-4.88Q168.08-5.20 169.20-5.80L169.20-5.80L169.20-5.80Q170.32-6.40 171.00-7.36L171.00-7.36L171.00-7.36Q171.68-8.32 171.68-9.52L171.68-9.52L171.68-9.52Q171.60-11.76 170.16-13.32L170.16-13.32L170.16-13.32Q168.72-14.88 166.44-16.12L166.44-16.12L166.44-16.12Q164.16-17.36 161.56-18.60L161.56-18.60L161.56-18.60Q158.96-19.84 156.68-21.48L156.68-21.48L156.68-21.48Q154.40-23.12 152.88-25.40L152.88-25.40L152.88-25.40Q151.36-27.68 151.36-31.04L151.36-31.04L151.36-31.04Q151.36-33.44 152.60-35.32L152.60-35.32L152.60-35.32Q153.84-37.20 155.80-38.44L155.80-38.44L155.80-38.44Q157.76-39.68 160.12-40.36L160.12-40.36L160.12-40.36Q162.48-41.04 164.72-41.04L164.72-41.04L164.72-41.04Q167.04-41.04 169.92-40.68L169.92-40.68L169.92-40.68Q172.80-40.32 176.56-39.36L176.56-39.36" fill="#edd041" stroke="none" stroke-width="none" transform="translate(-85.68002319335938,19.881601954868866)" style="fill: rgb(237, 208, 65);"></path></g></g>
</g>
</g>
<style id="bounce-0ec7cb90-a416-4fc1-9824-fe34a3b077d8" data-anikit="">@keyframes bounce-0ec7cb90-a416-4fc1-9824-fe34a3b077d8
{
  0% {
    animation-timing-function: cubic-bezier(0.1361,0.2514,0.2175,0.8786);
    transform: translate(0,0px) scaleY(1);
  }
  37% {
    animation-timing-function: cubic-bezier(0.7674,0.1844,0.8382,0.7157);
    transform: translate(0,-39.96px) scaleY(1);
  }
  72% {
    animation-timing-function: cubic-bezier(0.1118,0.2149,0.2172,0.941);
    transform: translate(0,0px) scaleY(1);
  }
  87% {
    animation-timing-function: cubic-bezier(0.7494,0.2259,0.8209,0.6963);
    transform: translate(0,19.900000000000002px) scaleY(0.602);
  }
  100% {
    transform: translate(0,0px) scaleY(1);
  }
}</style></svg>